# xmcd CD database file
# Copyright (C) 1997 Ti Kan
# 
# Track frame offsets:
#     150
#     26777
#     27751
#     54002
#     63921
#     82863
#     107964
#     110695
#     124894
#     125884
#     154396
#     158782
#     172647
#     194769
#     228537
#     238975
#     252675
#     267351
#     281934
#     297677
#     309810
# 
# Disc length: 4340 seconds
# 
# Revision: 1
# Processed by: cddbd v1.4b41PL1 Copyright (c) Steve Scherf et al.
# Submitted via: DiscPlay 4.0.3
# 
DISCID=3c10f215
DTITLE=The Asylum Street Spankers - Live
DYEAR=1900
DGENRE=
TTITLE0=Mama Don't Allow
TTITLE1=Intro ...Sugar in My Bowl
TTITLE2=Sugar in My Bowl
TTITLE3=Sittin' on Top of the World
TTITLE4=Lullaby of the Leaves
TTITLE5=Since I Met You Baby
TTITLE6=Intro  Wammo
TTITLE7=Walkin' Blues
TTITLE8=Intro  Summertime
TTITLE9=Summertime
TTITLE10=Intro  Continental Club
TTITLE11=Jerry the Junker
TTITLE12=Deep Ellum Blues
TTITLE13=Tain't Nobody's Bizness...
TTITLE14=Chinatown
TTITLE15=Drunkard's Wave
TTITLE16=Coffee Grindin' Blues
TTITLE17=Children of the Cornnuts
TTITLE18=Black Eye Blues
TTITLE19=Banks of the Ohio
TTITLE20=Last Kind Word Blues
EXTD=
EXTT0=
EXTT1=
EXTT2=
EXTT3=
EXTT4=
EXTT5=
EXTT6=
EXTT7=
EXTT8=
EXTT9=
EXTT10=
EXTT11=
EXTT12=
EXTT13=
EXTT14=
EXTT15=
EXTT16=
EXTT17=
EXTT18=
EXTT19=
EXTT20=
PLAYORDER=
